<svg
  width="250"
  height="250"
  viewBox="0 0 250 250"
  fill="none"
  xmlns="http://www.w3.org/2000/svg"
>
  <!-- Outer Hexagon -->
  <polygon
    points="125,15 215,75 215,175 125,235 35,175 35,75"
    stroke="#FF4500"
    stroke-width="8"
    fill="none"
    stroke-linejoin="round"
  />

  <!-- Inner Circuit-Like Path (Tech Vibes) -->
  <path
    d="M50,80 Q100,50 125,80 T200,80 M50,170 Q100,200 125,170 T200,170"
    stroke="#FF4500"
    stroke-width="3"
    stroke-linecap="round"
    fill="none"
  />

  <!-- Code Symbol (</>) with Dynamic Flow -->
  <path
    d="M85,110 L55,125 L85,140"
    stroke="#FF4500"
    stroke-width="5"
    stroke-linecap="round"
    stroke-linejoin="round"
  />
  <path
    d="M165,110 L195,125 L165,140"
    stroke="#FF4500"
    stroke-width="5"
    stroke-linecap="round"
    stroke-linejoin="round"
  />
  <line
    x1="105"
    y1="100"
    x2="145"
    y2="150"
    stroke="#FF4500"
    stroke-width="5"
    stroke-linecap="round"
  />

  <!-- Rising Pixel Blocks (Symbolizing Career Growth) -->
  <rect x="115" y="40" width="10" height="10" fill="#FF4500" />
  <rect x="125" y="30" width="10" height="10" fill="#FF4500" />
  <rect x="135" y="20" width="10" height="10" fill="#FF4500" />
  <rect x="145" y="10" width="10" height="10" fill="#FF4500" />

  <!-- Small Tech Dots -->
  <circle cx="35" cy="75" r="4" fill="#FF4500" />
  <circle cx="215" cy="75" r="4" fill="#FF4500" />
  <circle cx="35" cy="175" r="4" fill="#FF4500" />
  <circle cx="215" cy="175" r="4" fill="#FF4500" />
</svg>
